<svg width="64.000000" height="64.000000" viewBox="0 0 64 64" fill="none" xmlns="http://www.w3.org/2000/svg" xmlns:xlink="http://www.w3.org/1999/xlink">
	<desc>
			Created with Pixso.
	</desc>
	<defs>
		<clipPath id="clip6_41">
			<rect id="tabler-icon-ticket" width="64.000000" height="64.000000" fill="white" fill-opacity="0"/>
		</clipPath>
	</defs>
	<rect id="tabler-icon-ticket" width="64.000000" height="64.000000" fill="#FFFFFF" fill-opacity="0"/>
	<g clip-path="url(#clip6_41)">
		<path id="Vector" d="M40 13.3334L40 18.6667M40 29.3334L40 34.6667M40 45.3334L40 50.6667M50.6667 13.3334C52.0811 13.3334 53.4377 13.8953 54.438 14.8955C55.438 15.8956 56 17.2522 56 18.6667L56 26.6667C54.5854 26.6667 53.229 27.2286 52.2288 28.2288C51.2285 29.229 50.6667 30.5856 50.6667 32C50.6667 33.4146 51.2285 34.7711 52.2288 35.7712C53.229 36.7715 54.5854 37.3334 56 37.3334L56 45.3334C56 46.7478 55.438 48.1044 54.438 49.1046C53.4377 50.1049 52.0811 50.6667 50.6667 50.6667L13.3333 50.6667C11.9189 50.6667 10.5623 50.1049 9.56201 49.1046C8.56201 48.1044 8 46.7478 8 45.3334L8 37.3334C9.41455 37.3334 10.771 36.7715 11.7712 35.7712C12.7715 34.7711 13.3333 33.4146 13.3333 32C13.3333 30.5856 12.7715 29.229 11.7712 28.2288C10.771 27.2286 9.41455 26.6667 8 26.6667L8 18.6667C8 17.2522 8.56201 15.8956 9.56201 14.8955C10.5623 13.8953 11.9189 13.3334 13.3333 13.3334L50.6667 13.3334Z" stroke="#22BBCC" stroke-opacity="1.000000" stroke-width="4.000000" stroke-linejoin="round"/>
	</g>
</svg>
